<?xml version="1.0" encoding="utf-8"?>
<!-- Generator: Adobe Illustrator 26.2.1, SVG Export Plug-In . SVG Version: 6.00 Build 0)  -->
<svg version="1.1" id="Capa_1" xmlns="http://www.w3.org/2000/svg" xmlns:xlink="http://www.w3.org/1999/xlink" x="0px" y="0px"
	 viewBox="0 0 208.98 32" style="enable-background:new 0 0 208.98 32;" xml:space="preserve">
<style type="text/css">
	.st0{fill:#EB6449;}
	.st1{fill:#FFFFFF;}
</style>
<g>
	<g>
		<g>
			<g>
				<path class="st0" d="M17.4,0.12C12,10.2,0,31.99,0,31.99s10.21,0.59,17.78-7.11c7.56,7.7,17.78,7.11,17.78,7.11
					S22.64,8.23,18.15,0.12C18.06-0.04,17.49-0.04,17.4,0.12z"/>
			</g>
		</g>
	</g>
	<g>
		<g>
			<g>
				<g>
					<path class="st1" d="M44.12,13.08h-4.81V8.79h15.15v4.29h-4.81v12.12h-5.53V13.08z"/>
					<path class="st1" d="M68.19,20.14c1.97-1,3.09-2.79,3.09-5.15c0-3.8-2.9-6.19-7.48-6.19H55.9v16.42h4.56
						c0.47-3.03,0.87-6,0.97-6.76c0.01-0.06,0.1-0.09,0.13-0.03c0.52,0.73,2.81,3.96,4.94,6.79h5.12L68.19,20.14z M63.44,16.91
						h-2.01v-3.85h2.01c1.53,0,2.25,0.73,2.25,1.93C65.69,16.18,64.97,16.91,63.44,16.91z"/>
					<path class="st1" d="M190.13,20.14c1.97-1,3.09-2.79,3.09-5.15c0-3.8-2.9-6.19-7.48-6.19h-7.89v16.42h4.56
						c0.47-3.03,0.87-6,0.97-6.76c0.01-0.06,0.1-0.09,0.13-0.03c0.52,0.73,2.81,3.96,4.94,6.79h5.12L190.13,20.14z M185.39,16.91
						h-2.01v-3.85h2.01c1.53,0,2.25,0.73,2.25,1.93C187.64,16.18,186.92,16.91,185.39,16.91z"/>
					<path class="st1" d="M73.37,8.79h5.53v16.41h-5.53V8.79z"/>
					<path class="st1" d="M97.75,20.68c0,2.86-2.41,4.53-6.94,4.53h-9.24V8.79h8.77c4.53,0,6.64,1.81,6.64,4.29
						c0,1.52-0.77,2.79-2.27,3.54C96.63,17.33,97.75,18.74,97.75,20.68z M87.01,12.66v2.44h2.58c1.24,0,1.81-0.42,1.81-1.22
						c0-0.8-0.56-1.22-1.81-1.22H87.01z M92.17,20.05c0-0.84-0.61-1.29-1.83-1.29h-3.33v2.58h3.33
						C91.56,21.34,92.17,20.89,92.17,20.05z"/>
					<path class="st1" d="M99.56,17.82V8.79h5.53v8.86c0,2.51,0.96,3.45,2.51,3.45s2.51-0.94,2.51-3.45V8.79h5.44v9.03
						c0,4.92-2.95,7.76-8,7.76C102.52,25.58,99.56,22.74,99.56,17.82z"/>
					<path class="st1" d="M124.09,23.89l1.78-4.03c1.55,0.91,3.61,1.5,5.42,1.5c1.57,0,2.13-0.33,2.13-0.89
						c0-2.06-9.07-0.4-9.07-6.52c0-3.05,2.56-5.53,7.64-5.53c2.2,0,4.48,0.47,6.19,1.43l-1.66,4.01c-1.62-0.82-3.14-1.22-4.57-1.22
						c-1.62,0-2.13,0.47-2.13,1.03c0,1.97,9.07,0.33,9.07,6.38c0,3-2.56,5.53-7.64,5.53C128.5,25.58,125.73,24.9,124.09,23.89z"/>
					<path class="st1" d="M155.91,14.98c0,3.8-2.91,6.19-7.48,6.19h-2.37v4.03h-5.53V8.79h7.9C153,8.79,155.91,11.19,155.91,14.98z
						 M150.33,14.98c0-1.2-0.73-1.92-2.25-1.92h-2.02v3.85h2.02C149.6,16.91,150.33,16.18,150.33,14.98z"/>
					<path class="st1" d="M157.3,17c0-4.97,3.92-8.58,9.26-8.58c5.35,0,9.26,3.61,9.26,8.58s-3.92,8.58-9.26,8.58
						C161.21,25.58,157.3,21.97,157.3,17z M170.24,17c0-2.56-1.64-4.1-3.68-4.1c-2.04,0-3.68,1.55-3.68,4.1s1.64,4.1,3.68,4.1
						C168.6,21.1,170.24,19.56,170.24,17z"/>
					<path class="st1" d="M198.64,13.08h-4.81V8.79h15.15v4.29h-4.81v12.12h-5.53V13.08z"/>
				</g>
			</g>
		</g>
	</g>
</g>
</svg>
